<svg width="33" height="33" viewBox="0 0 33 33" fill="none" xmlns="http://www.w3.org/2000/svg">
    <path fill-rule="evenodd" clip-rule="evenodd" d="M2.62996 6.94897H0.193909V32.8777H26.1008V30.4405H2.62996V6.94897Z" fill="#27251F"/>
    <path fill-rule="evenodd" clip-rule="evenodd" d="M11.6075 0.438721V6.94593H26.1019V21.3939H32.6325V0.438721H11.6075Z" fill="#00A490"/>
    <path fill-rule="evenodd" clip-rule="evenodd" d="M8.54829 21.4719C7.45521 21.4719 6.37964 20.8005 6.37964 18.9772C6.37964 17.1547 7.45521 16.4924 8.54829 16.4924C9.21823 16.4924 9.68793 16.6839 10.1498 17.1737L9.47822 17.8266C9.17229 17.4901 8.93065 17.3654 8.54829 17.3654C8.17398 17.3654 7.85755 17.5195 7.64701 17.798C7.43564 18.0662 7.35921 18.4116 7.35921 18.9772C7.35921 19.544 7.43564 19.8992 7.64701 20.1671C7.85755 20.4454 8.17398 20.5996 8.54829 20.5996C8.93065 20.5996 9.17229 20.4741 9.47822 20.1379L10.1498 20.782C9.68793 21.2707 9.21823 21.4719 8.54829 21.4719ZM13.8788 17.9217C13.7261 17.5577 13.3819 17.3076 12.9188 17.3076C12.4592 17.3076 12.1044 17.5577 11.952 17.9217C11.8541 18.1426 11.8372 18.2871 11.8267 18.5843H14.0135C14.0048 18.2871 13.9762 18.1426 13.8788 17.9217ZM11.8267 19.2654C11.8267 20.0999 12.269 20.6278 13.0634 20.6278C13.6116 20.6278 13.8985 20.4741 14.243 20.1286L14.8662 20.7144C14.3678 21.2134 13.8985 21.4719 13.0451 21.4719C11.8267 21.4719 10.8599 20.8286 10.8599 18.9772C10.8599 17.4035 11.673 16.4924 12.9188 16.4924C14.223 16.4924 14.9822 17.4515 14.9822 18.834V19.2654H11.8267ZM17.8492 21.4719C17.0546 21.4719 16.3807 21.3379 15.8064 20.7715L16.4504 20.1286C16.8418 20.5316 17.3688 20.6375 17.8492 20.6375C18.4433 20.6375 18.9128 20.4256 18.9128 19.9651C18.9128 19.6395 18.7309 19.4284 18.2624 19.3899L17.4839 19.3235C16.5746 19.2466 16.0476 18.834 16.0476 17.9796C16.0476 17.0292 16.8616 16.4924 17.8795 16.4924C18.6073 16.4924 19.229 16.6462 19.68 17.0389L19.0677 17.6632C18.7601 17.4035 18.3286 17.3076 17.8685 17.3076C17.2822 17.3076 16.9854 17.5669 16.9854 17.9309C16.9854 18.2199 17.1407 18.4401 17.6586 18.4877L18.4252 18.5557C19.3355 18.6322 19.8728 19.0638 19.8728 19.9272C19.8728 20.9442 19.0096 21.4719 17.8492 21.4719Z" fill="#27251F"/>
    <path fill-rule="evenodd" clip-rule="evenodd" d="M21.0607 21.4141H22.0384V16.5505H21.0607V21.4141Z" fill="#27251F"/>
</svg>
