<svg width="75" height="74" viewBox="0 0 75 74" fill="none" xmlns="http://www.w3.org/2000/svg">
<g clip-path="url(#clip0_7_861)">
<path d="M31.9466 69.4667C30.3222 69.062 28.2014 68.4775 27.299 68.1178L25.6746 67.3984L25.9453 64.1611C26.1258 62.3626 26.4417 59.3052 26.6673 57.3268C26.8929 55.3485 27.0734 53.55 27.0734 53.2802C27.0734 53.0105 28.6075 52.5159 30.5027 52.2461C37.632 51.1221 44.8064 47.8848 48.5065 44.1079C50.537 41.9947 50.4467 41.9498 44.6711 43.1637C40.0686 44.1529 28.4271 44.9173 28.4271 44.2428C28.4271 43.0289 30.8637 33.362 32.082 29.6751C35.4661 19.4237 40.5198 12.5445 45.754 11.0157C48.8223 10.1165 51.4394 10.3863 55.0492 11.915C58.1175 13.2189 58.8846 12.8592 56.809 11.1057C53.1992 8.00328 47.4235 6.4296 42.7308 7.19396C39.6174 7.68854 35.782 9.35214 33.571 11.1506C28.5624 15.2422 24.2307 24.1447 20.5307 37.7683C19.8087 40.3761 19.177 42.5792 19.1319 42.6692C19.0416 42.7141 17.4172 42.0397 15.477 41.0955C13.5367 40.1063 11.7769 39.252 11.5513 39.1621C10.8294 38.8474 11.6416 44.063 12.6794 46.1762C13.3111 47.4801 14.3489 48.6491 15.5221 49.4135L17.3721 50.5825L16.2892 55.7082L15.1611 60.8789L13.266 58.7656C6.90372 51.7066 3.65492 42.804 4.19639 33.4969C4.51224 28.0564 5.32444 24.7742 7.62568 20.0082C16.0184 2.47292 37.3613 -4.85592 54.7785 3.86675C58.7492 5.84509 60.0578 6.7893 63.3066 9.84673C71.4286 17.4903 75.4896 28.7758 74.0006 39.4319C72.0603 53.4601 62.72 64.4309 48.9577 68.7922C44.8064 70.0961 36.3235 70.4109 31.9466 69.4667Z" fill="#AE007D"/>
</g>
<defs>
<clipPath id="clip0_7_861">
<rect width="74.4518" height="73.2884" fill="white"/>
</clipPath>
</defs>
</svg>
