<?xml version="1.0" encoding="UTF-8" standalone="no"?>
<!DOCTYPE svg PUBLIC "-//W3C//DTD SVG 1.1//EN" "http://www.w3.org/Graphics/SVG/1.1/DTD/svg11.dtd">
<svg width="100%" height="100%" viewBox="0 0 96 51" version="1.1" xmlns="http://www.w3.org/2000/svg" xmlns:xlink="http://www.w3.org/1999/xlink" xml:space="preserve" xmlns:serif="http://www.serif.com/" style="fill-rule:evenodd;clip-rule:evenodd;stroke-linejoin:round;stroke-miterlimit:2;">
    <g transform="matrix(1,0,0,1,-131.362,0)">
        <path d="M218.166,35.723L226.694,45.83C222.43,48.885 217.218,50.765 211.77,50.765C197.794,50.765 186.187,39.484 186.187,25.382C186.187,11.517 197.557,0 211.77,0C217.455,0 222.43,1.88 226.694,4.936L218.166,15.041C216.271,13.866 214.139,13.161 211.77,13.161C205.138,13.161 199.689,18.567 199.689,25.147C199.689,31.728 205.138,37.134 211.77,37.134C214.139,37.604 216.271,36.899 218.166,35.724L218.166,35.723ZM156.945,0.235C170.921,0.235 182.528,11.516 182.528,25.617C182.528,39.718 171.157,51 156.945,51C142.969,51 131.362,39.719 131.362,25.617C131.362,11.515 142.732,0.235 156.945,0.235ZM143.916,25.382C143.916,32.433 149.601,38.074 156.708,38.074C163.814,38.074 169.499,32.434 169.499,25.382C169.499,18.33 163.814,12.692 156.708,12.692C149.838,12.692 143.916,18.332 143.916,25.382Z" style="fill:rgb(116,81,235);fill-rule:nonzero;"/>
    </g>
</svg>
