<svg width="76" height="75" viewBox="0 0 76 75" fill="none" xmlns="http://www.w3.org/2000/svg">
<path d="M0.229065 0H75.8441V74.8949H0.229065V0Z" fill="#00609C"/>
<path d="M13.0814 20.3492V20.3124C13.0814 16.6517 15.933 13.6534 19.8341 13.6534C22.1524 13.6534 23.5507 14.279 24.8936 15.4192L23.1086 17.5718C22.1156 16.7441 21.2324 16.2657 19.7418 16.2657C17.6811 16.2657 16.0439 18.0864 16.0439 20.2758V20.3125C16.0439 22.6671 17.663 24.3961 19.9445 24.3961C20.9748 24.3961 21.8948 24.1386 22.6121 23.6234V21.7839H19.7605V19.3376H25.3539V24.9295C24.0287 26.0516 22.2074 26.9715 19.8524 26.9715C15.8413 26.9713 13.0814 24.1572 13.0814 20.3492Z" fill="white"/>
<path d="M26.8621 16.891H29.6587V18.8776C30.2288 17.5166 31.1488 16.6333 32.8048 16.7069V19.6316H32.658C30.7995 19.6316 29.6587 20.7537 29.6587 23.1083V26.7503H26.8621V16.891Z" fill="white"/>
<path d="M32.5819 23.9177V23.8809C32.5819 21.729 34.2192 20.7355 36.5556 20.7355C37.5497 20.7355 38.2669 20.9013 38.9661 21.1402V20.9749C38.9661 19.816 38.2488 19.1723 36.8505 19.1723C35.7834 19.1723 35.0288 19.3745 34.127 19.7056L33.4278 17.5718C34.5136 17.0934 35.5808 16.7809 37.2548 16.7809C38.7822 16.7809 39.886 17.1856 40.5852 17.8844C41.3211 18.6203 41.6523 19.7056 41.6523 21.0298V26.7506H38.9474V25.6835C38.2669 26.4382 37.3288 26.9347 35.9672 26.9347C34.1087 26.9345 32.5819 25.8675 32.5819 23.9177ZM39.0029 23.2739V22.7769C38.5245 22.5566 37.899 22.4094 37.2184 22.4094C36.0223 22.4094 35.2863 22.8879 35.2863 23.7706V23.8073C35.2863 24.5614 35.9119 25.003 36.8137 25.003C38.1196 25.0029 39.0029 24.2856 39.0029 23.2739Z" fill="white"/>
<path d="M43.1423 16.891H45.939V18.2889C46.5831 17.4617 47.4109 16.7071 48.828 16.7071C50.9436 16.7071 52.1765 18.105 52.1765 20.3677V26.7505H49.3798V21.2504C49.3798 19.9262 48.7542 19.2456 47.6871 19.2456C46.6201 19.2456 45.939 19.9261 45.939 21.2504V26.7505H43.1423V16.891Z" fill="white"/>
<path d="M53.2429 21.8392V21.8024C53.2429 18.5098 55.3959 16.7071 57.7327 16.7071C59.2227 16.7071 60.1428 17.3875 60.805 18.1785V13.3226H63.6017V26.7505H60.805V25.334C60.1245 26.2539 59.1859 26.9344 57.7327 26.9344C55.4327 26.9344 53.2429 25.1318 53.2429 21.8392ZM60.8419 21.8392V21.8024C60.8419 20.1651 59.7566 19.0799 58.4501 19.0799C57.144 19.0799 56.0396 20.147 56.0396 21.8024V21.8392C56.0396 23.4765 57.144 24.5617 58.4501 24.5617C59.7566 24.5617 60.8419 23.4764 60.8419 21.8392Z" fill="white"/>
<path d="M33.9202 53.6157L36.3721 49.8452C38.5595 51.4283 40.8597 52.2579 42.7457 52.2579C44.4051 52.2579 45.1596 51.6546 45.1596 50.7493V50.6739C45.1596 49.4298 43.1985 49.0153 40.9728 48.3366C38.1447 47.507 34.9383 46.1872 34.9383 42.265V42.1896C34.9383 38.08 38.2572 35.7801 42.3315 35.7801C44.8962 35.7801 47.6873 36.6471 49.8746 38.1183L47.6873 42.077C45.6878 40.9084 43.6884 40.1913 42.2181 40.1913C40.8232 40.1913 40.1061 40.7947 40.1061 41.5874V41.6628C40.1061 42.7932 42.0301 43.3214 44.2175 44.0756C47.0456 45.0189 50.3265 46.3758 50.3265 50.0718V50.1472C50.3265 54.6338 46.9702 56.6704 42.5954 56.6704C39.7655 56.6701 36.5983 55.7268 33.9202 53.6157Z" fill="white"/>
<path d="M53.1167 50.5614V40.9835H50.7028V36.0805H53.1167V30.9148H58.8495V36.0802H63.6017V40.9832H58.8495V49.6187C58.8495 50.9381 59.4158 51.5789 60.6981 51.5789C61.7531 51.5789 62.6967 51.3152 63.5262 50.8627V55.4631C62.3193 56.1793 60.9244 56.6318 59.0004 56.6318C55.4935 56.6321 53.1167 55.2369 53.1167 50.5614Z" fill="white"/>
<path d="M31.2297 51.1258H20.9118V56.2924H31.2297V51.1258Z" fill="white"/>
<path d="M31.3955 40.4317H21.0777V45.5971H31.3955V40.4317Z" fill="white"/>
<path d="M31.3955 29.8964H21.0777V35.063H31.3955V29.8964Z" fill="white"/>
<path d="M19.0029 29.8964H13.1916V56.2924H19.0029V29.8964Z" fill="white"/>
<path d="M29.7548 59.0621H12.8315V61.6143H29.7548V59.0621Z" fill="#71C5E8"/>
<path d="M46.6785 59.0621H29.7549V61.6143H46.6785V59.0621Z" fill="#E0E721"/>
<path d="M63.6017 59.0621H46.6785V61.6143H63.6017V59.0621Z" fill="#FFCD00"/>
</svg>
